<svg xmlns="http://www.w3.org/2000/svg" xmlns:xlink="http://www.w3.org/1999/xlink" xmlns:lucid="lucid" width="680" height="680"><g transform="translate(-220 -340)" lucid:page-tab-id="0_0"><path d="M440 366a6 6 0 0 1 6-6h428a6 6 0 0 1 6 6v208a6 6 0 0 1-6 6H446a6 6 0 0 1-6-6z" stroke="#232f3e" fill="#fff" fill-opacity="0"/><path d="M440 360h56v56h-56v-56z" stroke="#fff" stroke-opacity="0" fill="#232f3e"/><path d="M480.88 401.22h-25c-4.13.05-7.57-3.1-7.9-7.2v-.64c-.15-3.4 1.97-6.38 5.25-7.36v-.66c.12-4.22 2.44-7.75 6.24-9.57 4.12-1.86 8.73-.96 11.8 2.3 1.1 1.1 1.85 2.2 2.45 3.6 1.2-1 2.72-1.32 4.24-.9 2.24.8 3.68 2.74 3.76 5.1 3.68.65 6.32 3.8 6.28 7.56 0 7.07-7.04 7.73-7.12 7.76zm-26.7-13.88c-2.83.6-4.75 3.14-4.6 6.04v.53c.3 3.33 3.1 5.84 6.4 5.76h24.98c3.04-.3 5.4-2.64 5.68-5.7.28-3.43-2.24-6.5-5.68-6.78-.44-.05-.72-.44-.64-.87.08-1.83-1-3.44-2.72-4.13-1.32-.37-2.64.13-3.44 1.24-.2.25-.44.38-.76.33-.28-.05-.48-.24-.6-.5-.6-1.6-1.4-2.85-2.6-4.04-2.68-2.8-6.6-3.6-10.13-2-3.24 1.6-5.2 4.63-5.32 8.24-.04.4-.04.74 0 1.14.04.4-.2.76-.6.84z" stroke="#fff" stroke-opacity="0" fill="#fff"/><use xlink:href="#a" transform="matrix(1,0,0,1,511,380) translate(0 14.4)"/><use xlink:href="#b" transform="matrix(1,0,0,1,511,380) translate(45.3 14.4)"/><path d="M440 646a6 6 0 0 1 6-6h428a6 6 0 0 1 6 6v348a6 6 0 0 1-6 6H446a6 6 0 0 1-6-6z" stroke="#232f3e" fill="#fff" fill-opacity="0"/><path d="M440 640h56v56h-56v-56z" stroke="#fff" stroke-opacity="0" fill="#232f3e"/><path d="M480.88 681.22h-25c-4.13.05-7.57-3.1-7.9-7.2v-.64c-.15-3.4 1.97-6.38 5.25-7.36v-.66c.12-4.22 2.44-7.75 6.24-9.57 4.12-1.86 8.73-.96 11.8 2.3 1.1 1.1 1.85 2.2 2.45 3.6 1.2-1 2.72-1.32 4.24-.9 2.24.8 3.68 2.74 3.76 5.1 3.68.65 6.32 3.8 6.28 7.56 0 7.07-7.04 7.73-7.12 7.76zm-26.7-13.88c-2.83.6-4.75 3.14-4.6 6.04v.53c.3 3.33 3.1 5.84 6.4 5.76h24.98c3.04-.3 5.4-2.64 5.68-5.7.28-3.43-2.24-6.5-5.68-6.78-.44-.05-.72-.44-.64-.87.08-1.83-1-3.44-2.72-4.13-1.32-.37-2.64.13-3.44 1.24-.2.25-.44.38-.76.33-.28-.05-.48-.24-.6-.5-.6-1.6-1.4-2.85-2.6-4.04-2.68-2.8-6.6-3.6-10.13-2-3.24 1.6-5.2 4.63-5.32 8.24-.04.4-.04.74 0 1.14.04.4-.2.76-.6.84z" stroke="#fff" stroke-opacity="0" fill="#fff"/><use xlink:href="#a" transform="matrix(1,0,0,1,511,660) translate(0 14.4)"/><use xlink:href="#b" transform="matrix(1,0,0,1,511,660) translate(45.3 14.4)"/><g filter="url(#c)"><path d="M240 422a2 2 0 0 1 2-2h84a2 2 0 0 1 2 2v124a2 2 0 0 1-2 2h-84a2 2 0 0 1-2-2z" fill="#fff"/><path d="M308 482c1.65 0 3.07-.6 4.25-1.76 1.17-1.17 1.75-2.58 1.75-4.24v-30c0-1.66-.58-3.07-1.75-4.24-1.18-1.17-2.6-1.76-4.25-1.76h-48c-1.65 0-3.07.6-4.25 1.76-1.17 1.17-1.75 2.58-1.75 4.24v30c0 1.66.58 3.07 1.75 4.24 1.18 1.17 2.6 1.76 4.25 1.76h-12v6h72v-6zm-48-36h48v30h-48z" fill="#757575"/><use xlink:href="#d" transform="matrix(1,0,0,1,240,501) translate(23.39024560546875 28.05751953125)"/></g><path d="M799.18 515.1h-32.96c3.97 14.33-1.34 16.4-24.62 16.4v7.5h79.2v-7.5c-23.3 0-25.58-2.07-21.62-16.4" stroke="#000" stroke-opacity="0" fill="#7a7a7a"/><path d="M832.8 429H726.48c-3.6 0-6.48 3.2-6.48 6.8v74.95c0 3.54 2.88 6.73 6.48 6.73H832.8c3.6 0 7.2-3.2 7.2-6.73V435.8c0-3.6-3.6-6.8-7.2-6.8" stroke="#000" stroke-opacity="0" fill="#a0a1a2"/><path d="M832.82 429H726.54c-3.6 0-6.54 3.2-6.54 6.82v74.93c0 3.54 2.93 6.73 6.54 6.73h2.5L832.8 429z" stroke="#000" stroke-opacity="0" fill="#fff" fill-opacity=".2"/><path d="M830.4 438.57v69.34H729.6v-69.33h100.8z" stroke="#000" stroke-opacity="0" fill="#59b4d9"/><path d="M741.6 531.83h79.2V539h-79.2v-7.17z" stroke="#000" stroke-opacity="0" fill="#a0a1a2"/><path d="M781.24 434c0 .95-.76 1.7-1.7 1.7-.95 0-1.7-.75-1.7-1.7 0-.93.75-1.7 1.7-1.7.94 0 1.7.77 1.7 1.7" stroke="#000" stroke-opacity="0" fill="#b8d432"/><path d="M805.05 498.35l-47.1-3.78c-1.08-.1-1.95-1.05-1.95-2.15v-35.97c0-1.15.87-2.05 2-2.15l47.05-3.78c1.34 0 2.3.96 2.3 2.15v43.53c0 .57-.2 1.14-.6 1.53-.4.38-.98.62-1.54.62h-.15z" stroke="#000" stroke-opacity="0" fill="#0072c6" fill-opacity=".2"/><path d="M781.68 454.55v18.2h23.53v-20.1l-23.52 1.9zM758.15 456.43v16.33h20.17v-17.94l-20.17 1.6zM781.68 494.3v-18.2h23.53v20.1l-23.52-1.9zM758.15 492.43V476.1h20.17v17.95l-20.17-1.62z" stroke="#000" stroke-opacity="0" fill="#fff" fill-opacity=".8"/><path d="M743.02 531.83h76.35c.95 0 1.43.48 1.43 1.43v4.3c0 .96-.48 1.44-1.43 1.44h-76.35c-.95 0-1.42-.48-1.42-1.43v-4.3c0-.96.47-1.44 1.42-1.44z" stroke="#000" stroke-opacity="0" stroke-width="0" fill-opacity="0"/><use xlink:href="#e" transform="matrix(1,0,0,1,690,548) translate(24.625 14.4)"/><use xlink:href="#f" transform="matrix(1,0,0,1,690,548) translate(102.475 14.4)"/><path d="M579.18 515.1h-32.96c3.97 14.33-1.34 16.4-24.62 16.4v7.5h79.2v-7.5c-23.3 0-25.58-2.07-21.62-16.4" stroke="#000" stroke-opacity="0" fill="#7a7a7a"/><path d="M612.8 429H506.48c-3.6 0-6.48 3.2-6.48 6.8v74.95c0 3.54 2.88 6.73 6.48 6.73H612.8c3.6 0 7.2-3.2 7.2-6.73V435.8c0-3.6-3.6-6.8-7.2-6.8" stroke="#000" stroke-opacity="0" fill="#a0a1a2"/><path d="M612.82 429H506.54c-3.6 0-6.54 3.2-6.54 6.82v74.93c0 3.54 2.93 6.73 6.54 6.73h2.5L612.8 429z" stroke="#000" stroke-opacity="0" fill="#fff" fill-opacity=".2"/><path d="M610.4 438.57v69.34H509.6v-69.33h100.8z" stroke="#000" stroke-opacity="0" fill="#59b4d9"/><path d="M521.6 531.83h79.2V539h-79.2v-7.17z" stroke="#000" stroke-opacity="0" fill="#a0a1a2"/><path d="M561.24 434c0 .95-.76 1.7-1.7 1.7-.95 0-1.7-.75-1.7-1.7 0-.93.75-1.7 1.7-1.7.94 0 1.7.77 1.7 1.7" stroke="#000" stroke-opacity="0" fill="#b8d432"/><path d="M564.1 457.3l-1.24.74-1.06-1.93c-.4-.72-.47-1.35-.2-2 .25-.58.74-.9 1.35-.9h.14c.67.05 1.35.76 1.56 1.4.22.65.22 2.2-.57 2.7z" stroke="#000" stroke-opacity="0" fill="#fff" fill-opacity=".4"/><path d="M552.14 494.4c.02-.06-6.07-9.8-5.7-11.46 2.86-13.58 6.27-15.58 7.52-18.42 1.25-2.87.52-5.52 2-5.56 1.5-.04 5.9.3 6.93.65 1.05.36 2.56 1.43 3.42 3.77 1.12 2.15 2.24 4.3 2.6 6.72.03.22.14.45.3.6 2.8 3.1 3.38 6.9 3.2 10.9-.06 1-.22 2.5-.35 3.03-.13.5-3.95 12.85-10 12.7-6-.16-9.2-2.38-9.93-2.92z" stroke="#000" stroke-opacity="0" fill="#fbfbf9" fill-opacity=".85"/><path d="M584.55 491.52c-2.2-.1-3.37-1.42-3.4-2.7 0-1.46.63-3.33-1.52-3.5-2.15-.2-6.54-.43-7.72-.64-2.56-.47-2.68.56-2.73 1.3-.02.36.3 3.84-.04 5.2.02.57 0 1.15-.1 1.73-.26 1.6-.43 3.2-.65 4.78 0 .76-.02 1.53-.04 2.3 1.87 2.75 5.5 2.86 7.75.48 2.1-2.15 4.65-3.6 7.34-4.9.75-.38 1.47-.92 1.87-2 .42-1.05.04-2-.75-2.04z" stroke="#000" stroke-opacity="0" fill="#ff8c00" fill-opacity=".85"/><path d="M555.23 490.22c-.3 1.48-1.92 2.76-2.75 2.66-.53-.3-1.92-2.12-2.23-2.56-.9-1.38-4.9-7.1-6.07-6.66-.38.05-.6.3-.8.6-.07 0-.14.04-.22.1-.6-1.3-.53-2.57.1-3.8 1.5-2.66 2.16-5.42 2.92-8.38.26-1.04.87-1.88 1.5-2.66 1.18-1.48 1.14-3 2.35-4.5.8-.93 1.47-1.9 1.4-3.14-.23-3.45-.65-6.8-.54-10.26.15-3.35 3.13-6.16 6.45-7.4 3.43-1.27 6.67-.63 9.43 1.83 2.2 1.93 3.13 4.5 3.32 7.35 0 .54.03 1.03.03 1.57-.26 5.38 2 9.76 5.44 13.66 3.32 3.75 4.6 8.23 4.9 13.06.08 1.27-.34 2.46-.87 3.6-.7 1.67-1.73 2.65-2.67 3.1-.95.44-4.68.7-3.97-1.73.34-1.18.42-1.73-1.05-2.02.08-1 .27-2.02.3-3 .24-4-.48-7.16-3.54-10-.9-.9-.03-1-.07-1.8-.1-2.16-1.33-4.28-2.46-6.45-.12-.4-.3-.74-.57-1.03.08-.35-.1-.6-.26-.84.2-.7.46-1.33.35-2.07 0-.6-6.42-.9-7.2-.54-.35-.15-3.74-.3-3.74-.25-.45.35-.8.84-.94 1.38-.1.5.72 1.58.8 1.73l-.12 2.22-.23.73c-.5.84-1.08 1.68-1.6 2.52-.46.8-1.03 1.53-1.1 2.46-.34.95.98 2.23-.23 3.37-1.2 1.08-2.45 6.45-2.45 7.73-.04 1.38 2.5 4.5 3.43 5.38 1.74 1.67 3.32 2.26 2.98 4.04zM554 495.33c2.6.73 9.87.94 13.4-2.58l1.78-1.62c0 .6-.03 1.17-.13 1.76-.24 1.57-.42 3.16-.63 4.74l-.05 2.32c-3.24-.9-8.13-1.2-9.6-1.13-1.45.08-3.44.44-4.6.74l-.16-4.24z" stroke="#000" stroke-opacity="0" fill="#1e1e1e" fill-opacity=".85"/><path d="M581.36 489.22l-.16-.23.16.22zM580.4 485.87l-.2-.2.2.2z" stroke="#000" stroke-opacity="0" fill="#dda516" fill-opacity=".85"/><path d="M552.53 493.18l.1.16-.1-.16z" stroke="#000" stroke-opacity="0" fill="#8c5f07" fill-opacity=".85"/><path d="M580.2 485.67z" stroke="#000" stroke-opacity="0" fill="#e3a906" fill-opacity=".85"/><path d="M551.47 491.62c-1.88-1.95-3.33-4.3-4.66-6.95-.68-1.4-2.82-2.5-3.6-.32-.82 2.2-2.08 3.08-4.15 2.8-1.52-.2-2.94.97-2.3 2.88.7 2.04 1.45 3.65-.04 5.1-1.5 1.43-.87 2.92 1.24 3.2 2.1.3 7.65 1.54 10.85 3.23 3.2 1.68 5.74-1.5 6.08-2.45.85-2.3-1.5-5.53-3.4-7.48z" stroke="#000" stroke-opacity="0" fill="#ff8c00" fill-opacity=".85"/><path d="M558.6 468.76c-1.8 0-3-1.7-3.84-3.18 0 0-2.8-3.88-1.78-6.03.15-.3.38-.8 3.24-2.58l.53-.45.52-.26.32-.13c.4-.1.83-.24 1.26-.24h.2l.37.08.86.28 6.94 2.57.2 1.02c.16.85-.05 1.6-.23 2.18l-.25 1-.6.22c-.52.2-1.35 1.07-2 1.78-.66.7-1.28 1.36-1.9 1.76-.25.16-.5.34-.73.52-1 .73-1.93 1.44-3.1 1.44z" stroke="#000" stroke-opacity="0" fill="#1e1e1e" fill-opacity=".85"/><path d="M563.25 460.25c-1.23 1.06-2.63 1.97-4.4 2.02-.05.06-.05.06 0 0 .03-.4 0-.78-.33-1.06-.28-.23-.32-.6-.24-.9.33-1.25.13-2.52.18-3.8-.34-.1-1.1.18-1.2.2l-.44.23-.52.44c-.22.14-2.6 1.57-2.83 2.1-.63 1.3 1.42 4.55 1.73 4.92 2.4 4.2 3.73 2.36 5.98.8 1.2-.78 2.78-3.16 4.15-3.66.17-.68.46-1.34.32-2.05-.86.03-1.63.1-2.4.75z" stroke="#000" stroke-opacity="0" fill="#ff8c00" fill-opacity=".85"/><path d="M557.46 456.54h.02v-.02l-.02.02z" stroke="#000" stroke-opacity="0" fill="#e3a906" fill-opacity=".85"/><path d="M564.67 458.53c.52.27 1 .56 1 1.24-.96.06-1.8.13-2.64.85-1.35 1.15-3.17 2.88-5.1 2.93.1-.63-.8-1.53-.57-2.6.3-1.38.36-3.04.4-4.43.9-.34 1.7-.03 2.53.23.33.2.67.4 1 .62l1.8.68c.48.32 1.04.36 1.57.48z" stroke="#000" stroke-opacity="0" fill="#fcd116" fill-opacity=".85"/><path d="M555.2 454.24h2.4v2.4h-2.4v-2.4zM562.4 454.24h2.4v2.4h-2.4v-2.4z" stroke="#000" stroke-opacity="0" fill="#fff" fill-opacity=".9"/><path d="M523.02 531.83h76.35c.95 0 1.43.48 1.43 1.43v4.3c0 .96-.48 1.44-1.43 1.44h-76.35c-.95 0-1.42-.48-1.42-1.43v-4.3c0-.96.47-1.44 1.42-1.44z" stroke="#000" stroke-opacity="0" stroke-width="0" fill-opacity="0"/><use xlink:href="#g" transform="matrix(1,0,0,1,470,548) translate(36.05 14.4)"/><use xlink:href="#h" transform="matrix(1,0,0,1,470,548) translate(84 14.4)"/><path d="M335.38 484.5h-6.9v-1h6.9zm148.24 0h-53.67v-1h53.67z" stroke="#3a414a" stroke-width=".05" fill="#3a414a"/><path d="M328.5 484.5h-.5v-1h.5z" fill="#3a414a"/><path d="M328.53 484.52h-.57v-1.04h.57zm-.52-1v.96h.48v-.96z" stroke="#3a414a" stroke-width=".05" fill="#3a414a"/><path d="M498.38 484l-14.26 4.64v-9.28z" fill="#3a414a"/><path d="M500 484l-16.38 5.32v-10.64zm-15.38 3.95l12.14-3.95-12.14-3.95z" stroke="#3a414a" stroke-width=".05" fill="#3a414a"/><use xlink:href="#i" transform="matrix(1,0,0,1,335.38271604938274,462.6666666666667) translate(0 14.222222222222223)"/><use xlink:href="#j" transform="matrix(1,0,0,1,335.38271604938274,462.6666666666667) translate(41.4320987654321 14.222222222222223)"/><use xlink:href="#k" transform="matrix(1,0,0,1,335.38271604938274,462.6666666666667) translate(0 35.55555555555556)"/><use xlink:href="#l" transform="matrix(1,0,0,1,335.38271604938274,462.6666666666667) translate(21.62962962962963 35.55555555555556)"/><path d="M651.28 484.5H620.5v-1h30.78zm52.34 0h-14.9v-1h14.9z" stroke="#3a414a" stroke-width=".05" fill="#3a414a"/><path d="M620.5 484.5h-.5v-1h.5z" fill="#3a414a"/><path d="M620.54 484.52h-.56v-1.04h.56zm-.5-1v.96h.45v-.96z" stroke="#3a414a" stroke-width=".05" fill="#3a414a"/><path d="M718.38 484l-14.26 4.64v-9.28z" fill="#3a414a"/><path d="M720 484l-16.38 5.32v-10.64zm-15.38 3.95l12.14-3.95-12.14-3.95z" stroke="#3a414a" stroke-width=".05" fill="#3a414a"/><use xlink:href="#m" transform="matrix(1,0,0,1,651.283950617284,473.3333333333333) translate(0 14.222222222222223)"/><g filter="url(#c)"><path d="M240 693a2 2 0 0 1 2-2h84a2 2 0 0 1 2 2v124a2 2 0 0 1-2 2h-84a2 2 0 0 1-2-2z" fill="#fff"/><path d="M308 753c1.65 0 3.07-.6 4.25-1.76 1.17-1.17 1.75-2.58 1.75-4.24v-30c0-1.66-.58-3.07-1.75-4.24-1.18-1.17-2.6-1.76-4.25-1.76h-48c-1.65 0-3.07.6-4.25 1.76-1.17 1.17-1.75 2.58-1.75 4.24v30c0 1.66.58 3.07 1.75 4.24 1.18 1.17 2.6 1.76 4.25 1.76h-12v6h72v-6zm-48-36h48v30h-48z" fill="#757575"/><use xlink:href="#d" transform="matrix(1,0,0,1,240,772) translate(23.39024560546875 28.05751953125)"/></g><path d="M799.18 786.1h-32.96c3.97 14.33-1.34 16.4-24.62 16.4v7.5h79.2v-7.5c-23.3 0-25.58-2.07-21.62-16.4" stroke="#000" stroke-opacity="0" fill="#7a7a7a"/><path d="M832.8 700H726.48c-3.6 0-6.48 3.2-6.48 6.8v74.95c0 3.54 2.88 6.73 6.48 6.73H832.8c3.6 0 7.2-3.2 7.2-6.73V706.8c0-3.6-3.6-6.8-7.2-6.8" stroke="#000" stroke-opacity="0" fill="#a0a1a2"/><path d="M832.82 700H726.54c-3.6 0-6.54 3.2-6.54 6.82v74.93c0 3.54 2.93 6.73 6.54 6.73h2.5L832.8 700z" stroke="#000" stroke-opacity="0" fill="#fff" fill-opacity=".2"/><path d="M830.4 709.57v69.34H729.6v-69.33h100.8z" stroke="#000" stroke-opacity="0" fill="#59b4d9"/><path d="M741.6 802.83h79.2V810h-79.2v-7.17z" stroke="#000" stroke-opacity="0" fill="#a0a1a2"/><path d="M781.24 705c0 .95-.76 1.7-1.7 1.7-.95 0-1.7-.75-1.7-1.7 0-.93.75-1.7 1.7-1.7.94 0 1.7.77 1.7 1.7" stroke="#000" stroke-opacity="0" fill="#b8d432"/><path d="M805.05 769.35l-47.1-3.78c-1.08-.1-1.95-1.05-1.95-2.15v-35.97c0-1.15.87-2.05 2-2.15l47.05-3.78c1.34 0 2.3.96 2.3 2.15v43.53c0 .57-.2 1.14-.6 1.53-.4.38-.98.62-1.54.62h-.15z" stroke="#000" stroke-opacity="0" fill="#0072c6" fill-opacity=".2"/><path d="M781.68 725.55v18.2h23.53v-20.1l-23.52 1.9zM758.15 727.43v16.33h20.17v-17.94l-20.17 1.6zM781.68 765.3v-18.2h23.53v20.1l-23.52-1.9zM758.15 763.43V747.1h20.17v17.95l-20.17-1.62z" stroke="#000" stroke-opacity="0" fill="#fff" fill-opacity=".8"/><path d="M743.02 802.83h76.35c.95 0 1.43.48 1.43 1.43v4.3c0 .96-.48 1.44-1.43 1.44h-76.35c-.95 0-1.42-.48-1.42-1.43v-4.3c0-.96.47-1.44 1.42-1.44z" stroke="#000" stroke-opacity="0" stroke-width="0" fill-opacity="0"/><use xlink:href="#e" transform="matrix(1,0,0,1,690,819) translate(24.625 14.4)"/><use xlink:href="#f" transform="matrix(1,0,0,1,690,819) translate(102.475 14.4)"/><path d="M343.55 755.5H328.5v-1h15.05zm140.07-2h-60.56v-1h60.56z" stroke="#3a414a" stroke-width=".05" fill="#3a414a"/><path d="M328.5 755.5h-.5v-1h.5z" fill="#3a414a"/><path d="M328.53 755.52h-.57v-1.04h.57zm-.52-1v.96h.48v-.96z" stroke="#3a414a" stroke-width=".05" fill="#3a414a"/><path d="M498.38 753l-14.26 4.64v-9.28z" fill="#3a414a"/><path d="M500 753l-16.38 5.32v-10.64zm-15.38 3.95l12.14-3.95-12.14-3.95z" stroke="#3a414a" stroke-width=".05" fill="#3a414a"/><use xlink:href="#n" transform="matrix(1,0,0,1,343.5493369026037,733.6666666666666) translate(0 14.222222222222223)"/><use xlink:href="#o" transform="matrix(1,0,0,1,343.5493369026037,733.6666666666666) translate(42.0246913580247 14.222222222222223)"/><use xlink:href="#p" transform="matrix(1,0,0,1,343.5493369026037,733.6666666666666) translate(0 35.55555555555556)"/><path d="M703.62 754.5v1h-30.9v-1zm-115.12-1v-1h46.78v1z" stroke="#3a414a" stroke-width=".05" fill="#3a414a"/><path d="M588.5 753.5h-.5v-1h.5z" fill="#3a414a"/><path d="M588.54 753.52h-.56v-1.04h.56zm-.5-1v.96h.45v-.96z" stroke="#3a414a" stroke-width=".05" fill="#3a414a"/><path d="M718.38 755l-14.26 4.64v-9.28z" fill="#3a414a"/><path d="M720 755l-16.38 5.32v-10.64zm-15.38 3.95l12.14-3.95-12.14-3.95z" stroke="#3a414a" stroke-width=".05" fill="#3a414a"/><use xlink:href="#m" transform="matrix(1,0,0,1,635.283950617284,743.3333333333334) translate(0 14.222222222222223)"/><path d="M500 709h88v88h-88v-88z" stroke="#fff" stroke-opacity="0" fill="#cc2264"/><path d="M551.03 768.26h14.1v2.35h-14.1v1.2h-2.35v-1.2h-3.52v-2.34h3.52v-1.17h2.35zm4.7-7.05h-2.34v1.18h-8.24v2.36h8.23v1.17h2.34v-1.16h9.4v-2.36h-9.4zm-34.08-1.87c-3.06-1.88-4.76-4.94-4.65-8.47-.23-4.3 2.7-8 6.88-8.8.53-.13.88-.6.88-1.2l-.12-1.7c.12-5.28 3-9.7 7.76-11.98 5.18-2.3 10.88-1.18 14.76 2.94 1.76 1.76 2.88 3.64 3.7 6 .12.4.47.7.94.76.4.05.82-.06 1.12-.47 1.23-1.7 3.35-2.4 5.4-1.76 2.24.7 3.53 2.88 3.53 5.88-.06.3 0 .6.18.88.17.3.47.47.76.47 2.46.47 8.22 2.18 8.22 9.05v.83l2.35.1v-.93c0-7.87-6.1-10.4-9.17-11.1-.24-3.7-2.12-6.4-5.1-7.4-2.36-.83-4.72-.36-6.7 1.16-.9-2.05-1.95-3.58-3.54-5.17-4.58-4.8-11.28-6.1-17.34-3.46-5.7 2.7-9.1 8-9.23 14.3v.8c-4.83 1.42-7.94 5.77-7.7 10.82-.06 4.35 2 8.12 5.7 10.4 1.05.77 2.17 1.12 3.46 1.12h9.52v-2.35h-9.46c-.82 0-1.53-.23-2.17-.7zm38.8-4h-2.36v1.18h-12.94v2.36h12.93v1.17h2.34v-1.17h4.7v-2.35h-4.7z" stroke="#fff" stroke-opacity="0" fill="#fff"/><path d="M572.96 759.2c.23.25.35.54.35.83v7.06c0 .34-.1.63-.34.8-.24.24-.53.36-.88.36l-1.94-.12c-.36 1.18-.77 2.18-1.36 3.24l1.47 1.3c.24.23.4.52.4.87 0 .3-.1.6-.34.82l-4.92 4.94c-.24.25-.53.36-.9.36-.34 0-.57-.1-.8-.35l-1.3-1.46c-1.12.6-2.06 1-3.3 1.35l.12 1.93c.06.36-.05.6-.3.9-.22.22-.52.34-.87.34h-7c-.35 0-.64-.12-.88-.35-.23-.3-.35-.53-.3-.9l.13-1.93c-1.18-.36-2.18-.77-3.24-1.36l-1.35 1.47c-.18.25-.48.36-.83.36s-.6-.1-.88-.35l-4.9-4.93c-.23-.23-.34-.52-.34-.88s.17-.65.4-.83l1.48-1.3c-.6-1.1-1-2.05-1.35-3.28l-1.95.1c-.36.06-.65-.06-.9-.3-.22-.23-.34-.52-.34-.87v-7c0-.64.48-1.17 1.13-1.17h.12l1.94.12c.34-1.24.75-2.18 1.34-3.24l-1.47-1.35c-.24-.2-.4-.48-.4-.83s.1-.65.34-.88l4.95-4.95c.23-.24.53-.35.88-.35s.6.17.82.4l1.35 1.48c1.06-.6 2-1 3.24-1.35l-.12-1.94c-.06-.37.06-.66.3-.9.23-.23.52-.35.8-.35h7.07c.34 0 .63.12.87.35.23.24.35.53.3.9l-.12 1.93c1.17.35 2.17.76 3.23 1.35l1.35-1.47c.18-.23.47-.4.82-.4.36 0 .6.1.88.35l4.94 4.94c.24.22.35.52.3.87 0 .35-.12.64-.36.82l-1.46 1.34c.6 1.06 1 2 1.35 3.24l1.93-.12c.36 0 .6.12.83.35zm-2 2.07l-1.65.12c-.57.04-1.04-.37-1.16-.9-.35-1.64-.88-2.94-1.77-4.35-.35-.47-.23-1.1.18-1.52l1.24-1.06-3.25-3.23-1.17 1.3c-.4.4-1 .46-1.53.16-1.35-.82-2.65-1.35-4.23-1.76-.53-.12-.94-.6-.88-1.17l.05-1.65h-4.47l.06 1.65c0 .58-.37 1.05-.9 1.17-1.64.35-2.93.94-4.34 1.82-.47.3-1.12.18-1.47-.23l-1.2-1.24-3.16 3.17 1.3 1.17c.4.42.52 1 .17 1.53-.82 1.35-1.35 2.65-1.76 4.23-.1.53-.58.94-1.17.9l-1.65-.13v4.52l1.65-.07c.6-.05 1.06.36 1.17.9.4 1.63.94 2.93 1.82 4.34.3.47.24 1.1-.23 1.47l-1.23 1.17 3.17 3.18 1.12-1.3c.4-.4 1-.46 1.5-.16 1.37.82 2.72 1.4 4.3 1.76.53.12.9.6.9 1.17l-.07 1.65h4.46l-.06-1.65c-.06-.58.35-1.05.88-1.17 1.64-.4 2.94-.94 4.35-1.82.47-.3 1.1-.24 1.52.23l1.05 1.28 3.24-3.23-1.3-1.17c-.42-.4-.48-1-.18-1.53.82-1.35 1.35-2.65 1.76-4.23.12-.53.6-.94 1.17-.9l1.65.07z" stroke="#fff" stroke-opacity="0" fill="#fff"/><use xlink:href="#q" transform="matrix(1,0,0,1,470,806) translate(9.895061728395063 17.77777777777778)"/><use xlink:href="#r" transform="matrix(1,0,0,1,470,806) translate(98.72222222222221 17.77777777777778)"/><use xlink:href="#s" transform="matrix(1,0,0,1,470,806) translate(50.60493827160494 44.44444444444444)"/><path d="M672.28 422.3L690 439c-4.6-6.75-9.72-13.3-15.24-19.54 5.52-6.24 10.64-12.8 15.24-19.46l-17.72 16.7c-4.44-4.96-9.28-9.64-14.28-14.16-2.48-1.02-5.24-1.45-8-1.33l19.24 18.22-19.24 18.2c2.76.2 5.52-.18 8-1.3 5.12-4.42 9.84-9.1 14.28-14z" fill="red"/><path d="M651.02 870l20.48-27.93-4.55-2.07-17.88 24.48-9.95-4.56-2.62 3.57 14.25 6.5.07-.12.2.12z" stroke="#000" stroke-opacity="0" fill="#92d050"/><path d="M514 880h60v60h-60v-60z" stroke="#fff" stroke-opacity="0" stroke-width="2" fill="#d6242d"/><path d="M537.6 916.17h-5.7c-4.2 0-7.65-3.05-7.9-6.93v-.52c-.1-3.3 2-6.17 5.2-7.03v-.6c.13-4.12 2.5-7.57 6.3-9.2 4.1-1.77 8.6-.9 11.78 2.2 1.04 1.04 1.8 2.05 2.4 3.4.88-.7 1.84-1.02 2.96-1.02 2.24 0 4.6 1.56 5.04 5 4.08 1 6.32 3.56 6.32 7.3 0 4-2.2 6.66-6 7.3l-.24-1.6c2.12-.35 4.64-1.6 4.64-5.7 0-3.14-1.88-5.1-5.6-5.83-.36-.05-.64-.35-.64-.73-.2-3.05-2-4.13-3.52-4.13-1.04 0-1.96.44-2.6 1.27-.16.26-.44.36-.76.3-.28-.02-.52-.22-.64-.5-.52-1.53-1.28-2.74-2.48-3.88-2.7-2.67-6.55-3.4-10.1-1.92-3.17 1.4-5.1 4.28-5.25 7.73 0 .4 0 .7.05 1.07v.07c0 .4-.28.76-.68.8-1.72.46-4.6 1.77-4.6 5.68v.4c.2 3.04 2.96 5.44 6.28 5.44h5.76z" stroke="#fff" stroke-opacity="0" stroke-width="2" fill="#fff"/><path d="M563.2 928.97h-2.36c-.2 0-.4-.08-.55-.22l-1.42-1.4h-3.67c-.44 0-.8-.34-.8-.8v-2.04l-1.13-1.13h-2.06c-.44 0-.8-.35-.8-.8v-2.18l-.3-.48c-.93.32-1.77.47-2.76.47-4.5 0-8.14-3.63-8.14-8.12 0-2.87 1.34-5.33 3.77-6.86.2-.15.42-.28.65-.4.22-.13.52-.22.76-.35.43-.15.77-.25 1.22-.35l.65-.1H546.84c.18-.02.32-.04.5-.04 4.47 0 8.1 3.62 8.14 8.08.02 1-.13 1.86-.5 2.8l8.8 8.8c.16.17.24.35.24.57v3.77c-.03.42-.38.77-.82.77zm-2-1.6h1.2v-2.62l-8.93-8.92c-.25-.25-.3-.57-.18-.87.42-.9.6-1.7.57-2.68 0-3.62-2.93-6.54-6.53-6.54h-.88c-.17 0-.32.02-.5.07-.34.1-.64.16-1 .28l-.6.28c-.2.12-.36.2-.53.32-2.8 1.76-3.85 5.3-2.43 8.3 1.55 3.28 5.44 4.67 8.7 3.13.37-.16.8-.04 1 .3l.8 1.27c.1.13.13.25.13.42v1.58h1.6c.24 0 .4.07.56.25l1.6 1.58c.15.2.22.36.22.58v1.62h3.2c.23 0 .4.07.58.22zm-15.23-13.6c-.82 0-1.5-.3-2.08-.9-1.15-1.13-1.15-3.02 0-4.16 1.15-1.15 3.02-1.15 4.18 0 .57.58.87 1.28.87 2.1 0 1.63-1.3 2.95-2.95 2.97zm0-4.2c-.37 0-.7.1-.94.38-.27.28-.4.6-.4.97s.13.7.4.94c0 .03.02.03.02.05.53.5 1.37.5 1.9-.04.26-.25.4-.57.4-.94s-.14-.7-.4-.97c-.28-.25-.63-.37-1-.34z" stroke="#fff" stroke-opacity="0" stroke-width="2" fill="#fff"/><g><use xlink:href="#t" transform="matrix(1,0,0,1,484,949) translate(8.580246913580254 17.77777777777778)"/><use xlink:href="#u" transform="matrix(1,0,0,1,484,949) translate(64.50617283950618 17.77777777777778)"/></g><path d="M497.62 909.5v1h-1.4v-1zm-3.26 0v1h-2.8v-1zm-4.65-.02v1h-2.78v-1zm-4.64 0v1h-2.8v-1zm-4.65-.02v1h-2.78v-1zm-4.64 0v1l-2.8-.02v-1zm-4.65-.02v1h-2.78v-1zm-6.8-.2l.82.2h1.34v1H465l-1-.26-.35-.14.38-.92zm-2.75-2l.56.65.6.48-.66.76-.64-.54-.66-.78-.44-.7.85-.54zm-1.05-3.26l.07.88.07.28-.98.24-.08-.36-.08-1v-1.5h1zm0-3.45h-1v-2.98h1zm0-4.97h-1v-2.98h1zm0-4.96h-1v-2.98h1zm0-4.96h-1v-2.98h1zm0-4.97h-1v-2.98h1zm0-4.96h-1l-.02-2.97h1zm-.02-4.96h-1v-2.97h1zm0-4.96h-1v-2.98h1zm0-4.96h-1v-2.98h1zm0-4.97h-1v-2.97h1zm0-4.96h-1v-3h1zm0-4.97h-1v-2.98h1zm0-4.97h-1V838h1zm0-4.96h-1l-.02-2.98h1zm-.02-4.96h-1v-2.98h1zm0-4.97h-1v-2.97h1zm0-4.96h-1v-2.97h1zm0-4.95h-1v-2.98h1zm0-4.97h-1v-2.97h1zm0-4.96h-1v-2.98h1zm0-4.96h-1v-2.98h1zm-.02-4.97h-1v-2.98h1zm0-4.97h-1v-2.98h1zm0-4.96h-1v-2.98h1zm0-4.97h-1v-2.97h1zm0-4.96h-1v-2.98h1zm0-4.96h-1v-2.98h1zm0-4.97h-1v-2.96h1zm-.26-7.5l.25 1v1.55h-1v-1.43l-.2-.82-.1-.27.9-.38zm-2.36-3.26l.78.66.54.64-.76.65-.5-.6-.65-.55-.65-.4.53-.85zm-2.8-1.16l.36.08-.24.98-.28-.07-.88-.07h-1.5v-1h1.54zM330 755.5h-1.5v-1h1.5zm5 0h-3v-1h3zm5.03 0h-3v-1h3zm3.52 0h-1.5v-1h1.5zm86.85 0h-3v-1h3zm5.02 0h-3v-1h3zm5.02 0h-3v-1h3zm5.03 0h-3.02v-1h3.02zm5.02 0h-3.03v-1h3.02zm-25.12 0h-2.32v-1h2.32z" stroke="#3a414a" stroke-width=".05" fill="#3a414a"/><path d="M328.5 755.5h-.5v-1h.5z" fill="#3a414a"/><path d="M328.53 755.52h-.57v-1.04h.57zm-.52-1v.96h.48v-.96z" stroke="#3a414a" stroke-width=".05" fill="#3a414a"/><path d="M512.38 910l-14.26 4.64v-9.28z" fill="#3a414a"/><path d="M514 910l-16.38 5.32v-10.64zm-15.38 3.95l12.14-3.95-12.14-3.95z" stroke="#3a414a" stroke-width=".05" fill="#3a414a"/><defs><path fill="#232f3e" d="M205 0l-28-72H64L36 0H1l101-248h38L239 0h-34zm-38-99l-47-123c-12 45-31 82-46 123h93" id="v"/><path fill="#232f3e" d="M266 0h-40l-56-210L115 0H75L2-248h35L96-30l15-64 43-154h32l59 218 59-218h35" id="w"/><path fill="#232f3e" d="M185-189c-5-48-123-54-124 2 14 75 158 14 163 119 3 78-121 87-175 55-17-10-28-26-33-46l33-7c5 56 141 63 141-1 0-78-155-14-162-118-5-82 145-84 179-34 5 7 8 16 11 25" id="x"/><g id="a"><use transform="matrix(0.05,0,0,0.05,0,0)" xlink:href="#v"/><use transform="matrix(0.05,0,0,0.05,11.35,0)" xlink:href="#w"/><use transform="matrix(0.05,0,0,0.05,28.299999999999997,0)" xlink:href="#x"/></g><path fill="#232f3e" d="M212-179c-10-28-35-45-73-45-59 0-87 40-87 99 0 60 29 101 89 101 43 0 62-24 78-52l27 14C228-24 195 4 139 4 59 4 22-46 18-125c-6-104 99-153 187-111 19 9 31 26 39 46" id="y"/><path fill="#232f3e" d="M24 0v-261h32V0H24" id="z"/><path fill="#232f3e" d="M100-194c62-1 85 37 85 99 1 63-27 99-86 99S16-35 15-95c0-66 28-99 85-99zM99-20c44 1 53-31 53-75 0-43-8-75-51-75s-53 32-53 75 10 74 51 75" id="A"/><path fill="#232f3e" d="M84 4C-5 8 30-112 23-190h32v120c0 31 7 50 39 49 72-2 45-101 50-169h31l1 190h-30c-1-10 1-25-2-33-11 22-28 36-60 37" id="B"/><path fill="#232f3e" d="M85-194c31 0 48 13 60 33l-1-100h32l1 261h-30c-2-10 0-23-3-31C134-8 116 4 85 4 32 4 16-35 15-94c0-66 23-100 70-100zm9 24c-40 0-46 34-46 75 0 40 6 74 45 74 42 0 51-32 51-76 0-42-9-74-50-73" id="C"/><g id="b"><use transform="matrix(0.05,0,0,0.05,0,0)" xlink:href="#y"/><use transform="matrix(0.05,0,0,0.05,12.950000000000001,0)" xlink:href="#z"/><use transform="matrix(0.05,0,0,0.05,16.900000000000002,0)" xlink:href="#A"/><use transform="matrix(0.05,0,0,0.05,26.900000000000002,0)" xlink:href="#B"/><use transform="matrix(0.05,0,0,0.05,36.900000000000006,0)" xlink:href="#C"/></g><path d="M362-157h690V0H169v-1456h193v1299" id="D"/><path d="M561-1102c238-4 403 126 403 351v498c0 99 13 178 38 237V0H808c-11-21-19-59-26-114C696-25 593 20 474 20c-199 0-368-130-365-320 4-251 214-359 490-356h180v-85c-1-135-86-212-229-212-115 0-232 67-233 171H131c20-205 206-316 430-320zM294-326c0 117 90 185 207 185 122 0 239-75 278-162v-222H634c-227 0-340 66-340 199" id="E"/><path d="M632-1102c291 0 422 251 422 573 0 297-141 548-419 549-131 0-235-42-310-125v521H140v-1498h169l9 120c75-93 180-140 314-140zm-53 971c207 0 290-180 290-419 0-218-92-395-292-395-112 0-196 50-252 149v517c55 99 140 148 254 148" id="F"/><path d="M456 20C285 20 205-92 206-268v-671H9v-143h197v-262h185v262h202v143H391v671c-9 125 92 149 207 118V0c-49 13-96 20-142 20" id="G"/><path d="M584 20C278 26 81-227 91-551c10-320 175-545 491-551 308-5 503 247 494 573-9 322-175 543-492 549zm-2-970c-208 0-305 185-305 421 0 216 106 398 307 398 211 0 307-186 307-420 0-214-109-399-309-399" id="H"/><g id="d"><use transform="matrix(0.0065107421875,0,0,0.0065107421875,0,0)" xlink:href="#D"/><use transform="matrix(0.0065107421875,0,0,0.0065107421875,7.174837890625,0)" xlink:href="#E"/><use transform="matrix(0.0065107421875,0,0,0.0065107421875,14.4278046875,0)" xlink:href="#F"/><use transform="matrix(0.0065107421875,0,0,0.0065107421875,21.9086474609375,0)" xlink:href="#G"/><use transform="matrix(0.0065107421875,0,0,0.0065107421875,26.134119140625003,0)" xlink:href="#H"/><use transform="matrix(0.0065107421875,0,0,0.0065107421875,33.738666015625,0)" xlink:href="#F"/></g><filter id="c" filterUnits="objectBoundingBox" x="-.02" y="0" width="1.03" height="1.02"><feOffset result="offOut" in="SourceAlpha" dy="1"/><feGaussianBlur result="blurOut" in="offOut" stdDeviation=".75"/><feColorMatrix result="colorOut" in="blurOut" values="0 0 0 0 0 0 0 0 0 0 0 0 0 0 0 0 0 0 0.4 0"/><feBlend in="SourceGraphic" in2="colorOut"/></filter><path d="M266 0h-40l-56-210L115 0H75L2-248h35L96-30l15-64 43-154h32l59 218 59-218h35" id="I"/><path d="M24-231v-30h32v30H24zM24 0v-190h32V0H24" id="J"/><path d="M117-194c89-4 53 116 60 194h-32v-121c0-31-8-49-39-48C34-167 62-67 57 0H25l-1-190h30c1 10-1 24 2 32 11-22 29-35 61-36" id="K"/><path d="M85-194c31 0 48 13 60 33l-1-100h32l1 261h-30c-2-10 0-23-3-31C134-8 116 4 85 4 32 4 16-35 15-94c0-66 23-100 70-100zm9 24c-40 0-46 34-46 75 0 40 6 74 45 74 42 0 51-32 51-76 0-42-9-74-50-73" id="L"/><path d="M100-194c62-1 85 37 85 99 1 63-27 99-86 99S16-35 15-95c0-66 28-99 85-99zM99-20c44 1 53-31 53-75 0-43-8-75-51-75s-53 32-53 75 10 74 51 75" id="M"/><path d="M206 0h-36l-40-164L89 0H53L-1-190h32L70-26l43-164h34l41 164 42-164h31" id="N"/><path d="M135-143c-3-34-86-38-87 0 15 53 115 12 119 90S17 21 10-45l28-5c4 36 97 45 98 0-10-56-113-15-118-90-4-57 82-63 122-42 12 7 21 19 24 35" id="O"/><g id="e"><use transform="matrix(0.05,0,0,0.05,0,0)" xlink:href="#I"/><use transform="matrix(0.05,0,0,0.05,16.95,0)" xlink:href="#J"/><use transform="matrix(0.05,0,0,0.05,20.9,0)" xlink:href="#K"/><use transform="matrix(0.05,0,0,0.05,30.899999999999995,0)" xlink:href="#L"/><use transform="matrix(0.05,0,0,0.05,40.9,0)" xlink:href="#M"/><use transform="matrix(0.05,0,0,0.05,50.9,0)" xlink:href="#N"/><use transform="matrix(0.05,0,0,0.05,63.85,0)" xlink:href="#O"/></g><path d="M185-189c-5-48-123-54-124 2 14 75 158 14 163 119 3 78-121 87-175 55-17-10-28-26-33-46l33-7c5 56 141 63 141-1 0-78-155-14-162-118-5-82 145-84 179-34 5 7 8 16 11 25" id="P"/><path d="M100-194c63 0 86 42 84 106H49c0 40 14 67 53 68 26 1 43-12 49-29l28 8c-11 28-37 45-77 45C44 4 14-33 15-96c1-61 26-98 85-98zm52 81c6-60-76-77-97-28-3 7-6 17-6 28h103" id="Q"/><path d="M114-163C36-179 61-72 57 0H25l-1-190h30c1 12-1 29 2 39 6-27 23-49 58-41v29" id="R"/><path d="M108 0H70L1-190h34L89-25l56-165h34" id="S"/><g id="f"><use transform="matrix(0.05,0,0,0.05,0,0)" xlink:href="#P"/><use transform="matrix(0.05,0,0,0.05,12,0)" xlink:href="#Q"/><use transform="matrix(0.05,0,0,0.05,22,0)" xlink:href="#R"/><use transform="matrix(0.05,0,0,0.05,27.950000000000003,0)" xlink:href="#S"/><use transform="matrix(0.05,0,0,0.05,36.95,0)" xlink:href="#Q"/><use transform="matrix(0.05,0,0,0.05,46.95,0)" xlink:href="#R"/></g><path d="M30 0v-248h33v221h125V0H30" id="T"/><path d="M84 4C-5 8 30-112 23-190h32v120c0 31 7 50 39 49 72-2 45-101 50-169h31l1 190h-30c-1-10 1-25-2-33-11 22-28 36-60 37" id="U"/><path d="M141 0L90-78 38 0H4l68-98-65-92h35l48 74 47-74h35l-64 92 68 98h-35" id="V"/><g id="g"><use transform="matrix(0.05,0,0,0.05,0,0)" xlink:href="#T"/><use transform="matrix(0.05,0,0,0.05,10,0)" xlink:href="#J"/><use transform="matrix(0.05,0,0,0.05,13.949999999999998,0)" xlink:href="#K"/><use transform="matrix(0.05,0,0,0.05,23.95,0)" xlink:href="#U"/><use transform="matrix(0.05,0,0,0.05,33.95,0)" xlink:href="#V"/></g><path d="M160-131c35 5 61 23 61 61C221 17 115-2 30 0v-248c76 3 177-17 177 60 0 33-19 50-47 57zm-97-11c50-1 110 9 110-42 0-47-63-36-110-37v79zm0 115c55-2 124 14 124-45 0-56-70-42-124-44v89" id="W"/><path d="M141-36C126-15 110 5 73 4 37 3 15-17 15-53c-1-64 63-63 125-63 3-35-9-54-41-54-24 1-41 7-42 31l-33-3c5-37 33-52 76-52 45 0 72 20 72 64v82c-1 20 7 32 28 27v20c-31 9-61-2-59-35zM48-53c0 20 12 33 32 33 41-3 63-29 60-74-43 2-92-5-92 41" id="X"/><path d="M59-47c-2 24 18 29 38 22v24C64 9 27 4 27-40v-127H5v-23h24l9-43h21v43h35v23H59v120" id="Y"/><g id="h"><use transform="matrix(0.05,0,0,0.05,0,0)" xlink:href="#W"/><use transform="matrix(0.05,0,0,0.05,12,0)" xlink:href="#X"/><use transform="matrix(0.05,0,0,0.05,22,0)" xlink:href="#O"/><use transform="matrix(0.05,0,0,0.05,31,0)" xlink:href="#Y"/><use transform="matrix(0.05,0,0,0.05,36,0)" xlink:href="#J"/><use transform="matrix(0.05,0,0,0.05,39.95,0)" xlink:href="#M"/><use transform="matrix(0.05,0,0,0.05,49.95,0)" xlink:href="#K"/></g><path fill="#333" d="M169-182c-1-43-94-46-97-3 18 66 151 10 154 114 3 95-165 93-204 36-6-8-10-19-12-30l50-8c3 46 112 56 116 5-17-69-150-10-154-114-4-87 153-88 188-35 5 8 8 18 10 28" id="Z"/><path fill="#333" d="M186 0v-106H76V0H24v-248h52v99h110v-99h50V0h-50" id="aa"/><g id="i"><use transform="matrix(0.04938271604938272,0,0,0.04938271604938272,0,0)" xlink:href="#Z"/><use transform="matrix(0.04938271604938272,0,0,0.04938271604938272,11.851851851851853,0)" xlink:href="#Z"/><use transform="matrix(0.04938271604938272,0,0,0.04938271604938272,23.703703703703706,0)" xlink:href="#aa"/></g><path fill="#333" d="M115-3C79 11 28 4 28-45v-112H4v-33h27l15-45h31v45h36v33H77v99c-1 23 16 31 38 25v30" id="ab"/><path fill="#333" d="M85 4C-2 5 27-109 22-190h50c7 57-23 150 33 157 60-5 35-97 40-157h50l1 190h-47c-2-12 1-28-3-38-12 25-28 42-61 42" id="ac"/><path fill="#333" d="M135-194c87-1 58 113 63 194h-50c-7-57 23-157-34-157-59 0-34 97-39 157H25l-1-190h47c2 12-1 28 3 38 12-26 28-41 61-42" id="ad"/><path fill="#333" d="M185-48c-13 30-37 53-82 52C43 2 14-33 14-96s30-98 90-98c62 0 83 45 84 108H66c0 31 8 55 39 56 18 0 30-7 34-22zm-45-69c5-46-57-63-70-21-2 6-4 13-4 21h74" id="ae"/><path fill="#333" d="M25 0v-261h50V0H25" id="af"/><g id="j"><use transform="matrix(0.04938271604938272,0,0,0.04938271604938272,0,0)" xlink:href="#ab"/><use transform="matrix(0.04938271604938272,0,0,0.04938271604938272,5.8765432098765435,0)" xlink:href="#ac"/><use transform="matrix(0.04938271604938272,0,0,0.04938271604938272,16.691358024691358,0)" xlink:href="#ad"/><use transform="matrix(0.04938271604938272,0,0,0.04938271604938272,27.50617283950617,0)" xlink:href="#ad"/><use transform="matrix(0.04938271604938272,0,0,0.04938271604938272,38.32098765432099,0)" xlink:href="#ae"/><use transform="matrix(0.04938271604938272,0,0,0.04938271604938272,48.19753086419753,0)" xlink:href="#af"/></g><path fill="#333" d="M110-194c64 0 96 36 96 99 0 64-35 99-97 99-61 0-95-36-95-99 0-62 34-99 96-99zm-1 164c35 0 45-28 45-65 0-40-10-65-43-65-34 0-45 26-45 65 0 36 10 65 43 65" id="ag"/><g id="k"><use transform="matrix(0.04938271604938272,0,0,0.04938271604938272,0,0)" xlink:href="#ab"/><use transform="matrix(0.04938271604938272,0,0,0.04938271604938272,5.8765432098765435,0)" xlink:href="#ag"/></g><path fill="#333" d="M240-174c0 40-23 61-54 70L253 0h-59l-57-94H76V0H24v-248c93 4 217-23 216 74zM76-134c48-2 112 12 112-38 0-48-66-32-112-35v73" id="ah"/><path fill="#333" d="M24-248c120-7 223 5 221 122C244-46 201 0 124 0H24v-248zM76-40c74 7 117-18 117-86 0-67-45-88-117-82v168" id="ai"/><path fill="#333" d="M24-248c93 1 206-16 204 79-1 75-69 88-152 82V0H24v-248zm52 121c47 0 100 7 100-41 0-47-54-39-100-39v80" id="aj"/><g id="l"><use transform="matrix(0.04938271604938272,0,0,0.04938271604938272,0,0)" xlink:href="#ah"/><use transform="matrix(0.04938271604938272,0,0,0.04938271604938272,12.790123456790125,0)" xlink:href="#ai"/><use transform="matrix(0.04938271604938272,0,0,0.04938271604938272,25.58024691358025,0)" xlink:href="#aj"/></g><g id="m"><use transform="matrix(0.04938271604938272,0,0,0.04938271604938272,0,0)" xlink:href="#ah"/><use transform="matrix(0.04938271604938272,0,0,0.04938271604938272,12.790123456790125,0)" xlink:href="#ai"/><use transform="matrix(0.04938271604938272,0,0,0.04938271604938272,25.58024691358025,0)" xlink:href="#aj"/></g><g id="n"><use transform="matrix(0.04938271604938272,0,0,0.04938271604938272,0,0)" xlink:href="#ah"/><use transform="matrix(0.04938271604938272,0,0,0.04938271604938272,12.790123456790125,0)" xlink:href="#ai"/><use transform="matrix(0.04938271604938272,0,0,0.04938271604938272,25.58024691358025,0)" xlink:href="#aj"/></g><path fill="#333" d="M128 0H69L1-190h53L99-40l48-150h52" id="ak"/><path fill="#333" d="M135-150c-39-12-60 13-60 57V0H25l-1-190h47c2 13-1 29 3 40 6-28 27-53 61-41v41" id="al"/><g id="o"><use transform="matrix(0.04938271604938272,0,0,0.04938271604938272,0,0)" xlink:href="#ag"/><use transform="matrix(0.04938271604938272,0,0,0.04938271604938272,10.814814814814815,0)" xlink:href="#ak"/><use transform="matrix(0.04938271604938272,0,0,0.04938271604938272,20.69135802469136,0)" xlink:href="#ae"/><use transform="matrix(0.04938271604938272,0,0,0.04938271604938272,30.567901234567906,0)" xlink:href="#al"/></g><path fill="#333" d="M135-194c52 0 70 43 70 98 0 56-19 99-73 100-30 1-46-15-58-35L72 0H24l1-261h50v104c11-23 29-37 60-37zM114-30c31 0 40-27 40-66 0-37-7-63-39-63s-41 28-41 65c0 36 8 64 40 64" id="am"/><path fill="#333" d="M231 0h-52l-39-155L100 0H48L-1-190h46L77-45c9-52 24-97 36-145h53l37 145 32-145h46" id="an"/><path fill="#333" d="M137-138c1-29-70-34-71-4 15 46 118 7 119 86 1 83-164 76-172 9l43-7c4 19 20 25 44 25 33 8 57-30 24-41C81-84 22-81 20-136c-2-80 154-74 161-7" id="ao"/><g id="p"><use transform="matrix(0.04938271604938272,0,0,0.04938271604938272,0,0)" xlink:href="#am"/><use transform="matrix(0.04938271604938272,0,0,0.04938271604938272,10.814814814814815,0)" xlink:href="#al"/><use transform="matrix(0.04938271604938272,0,0,0.04938271604938272,17.728395061728396,0)" xlink:href="#ag"/><use transform="matrix(0.04938271604938272,0,0,0.04938271604938272,28.543209876543205,0)" xlink:href="#an"/><use transform="matrix(0.04938271604938272,0,0,0.04938271604938272,42.37037037037037,0)" xlink:href="#ao"/><use transform="matrix(0.04938271604938272,0,0,0.04938271604938272,52.246913580246904,0)" xlink:href="#ae"/><use transform="matrix(0.04938271604938272,0,0,0.04938271604938272,62.12345679012345,0)" xlink:href="#al"/></g><path fill="#3a414a" d="M212-179c-10-28-35-45-73-45-59 0-87 40-87 99 0 60 29 101 89 101 43 0 62-24 78-52l27 14C228-24 195 4 139 4 59 4 22-46 18-125c-6-104 99-153 187-111 19 9 31 26 39 46" id="ap"/><path fill="#3a414a" d="M100-194c62-1 85 37 85 99 1 63-27 99-86 99S16-35 15-95c0-66 28-99 85-99zM99-20c44 1 53-31 53-75 0-43-8-75-51-75s-53 32-53 75 10 74 51 75" id="aq"/><path fill="#3a414a" d="M117-194c89-4 53 116 60 194h-32v-121c0-31-8-49-39-48C34-167 62-67 57 0H25l-1-190h30c1 10-1 24 2 32 11-22 29-35 61-36" id="ar"/><path fill="#3a414a" d="M100-194c63 0 86 42 84 106H49c0 40 14 67 53 68 26 1 43-12 49-29l28 8c-11 28-37 45-77 45C44 4 14-33 15-96c1-61 26-98 85-98zm52 81c6-60-76-77-97-28-3 7-6 17-6 28h103" id="as"/><path fill="#3a414a" d="M96-169c-40 0-48 33-48 73s9 75 48 75c24 0 41-14 43-38l32 2c-6 37-31 61-74 61-59 0-76-41-82-99-10-93 101-131 147-64 4 7 5 14 7 22l-32 3c-4-21-16-35-41-35" id="at"/><path fill="#3a414a" d="M59-47c-2 24 18 29 38 22v24C64 9 27 4 27-40v-127H5v-23h24l9-43h21v43h35v23H59v120" id="au"/><g id="q"><use transform="matrix(0.06172839506172839,0,0,0.06172839506172839,0,0)" xlink:href="#ap"/><use transform="matrix(0.06172839506172839,0,0,0.06172839506172839,15.987654320987653,0)" xlink:href="#aq"/><use transform="matrix(0.06172839506172839,0,0,0.06172839506172839,28.333333333333332,0)" xlink:href="#ar"/><use transform="matrix(0.06172839506172839,0,0,0.06172839506172839,40.67901234567901,0)" xlink:href="#ar"/><use transform="matrix(0.06172839506172839,0,0,0.06172839506172839,53.02469135802469,0)" xlink:href="#as"/><use transform="matrix(0.06172839506172839,0,0,0.06172839506172839,65.37037037037037,0)" xlink:href="#at"/><use transform="matrix(0.06172839506172839,0,0,0.06172839506172839,76.48148148148148,0)" xlink:href="#au"/></g><path fill="#3a414a" d="M206 0h-36l-40-164L89 0H53L-1-190h32L70-26l43-164h34l41 164 42-164h31" id="av"/><path fill="#3a414a" d="M24-231v-30h32v30H24zM24 0v-190h32V0H24" id="aw"/><path fill="#3a414a" d="M106-169C34-169 62-67 57 0H25v-261h32l-1 103c12-21 28-36 61-36 89 0 53 116 60 194h-32v-121c2-32-8-49-39-48" id="ax"/><g id="r"><use transform="matrix(0.06172839506172839,0,0,0.06172839506172839,0,0)" xlink:href="#av"/><use transform="matrix(0.06172839506172839,0,0,0.06172839506172839,15.987654320987653,0)" xlink:href="#aw"/><use transform="matrix(0.06172839506172839,0,0,0.06172839506172839,20.864197530864196,0)" xlink:href="#au"/><use transform="matrix(0.06172839506172839,0,0,0.06172839506172839,27.037037037037035,0)" xlink:href="#ax"/></g><path fill="#3a414a" d="M233-177c-1 41-23 64-60 70L243 0h-38l-65-103H63V0H30v-248c88 3 205-21 203 71zM63-129c60-2 137 13 137-47 0-61-80-42-137-45v92" id="ay"/><path fill="#3a414a" d="M30-248c118-7 216 8 213 122C240-48 200 0 122 0H30v-248zM63-27c89 8 146-16 146-99s-60-101-146-95v194" id="az"/><path fill="#3a414a" d="M30-248c87 1 191-15 191 75 0 78-77 80-158 76V0H30v-248zm33 125c57 0 124 11 124-50 0-59-68-47-124-48v98" id="aA"/><g id="s"><use transform="matrix(0.06172839506172839,0,0,0.06172839506172839,0,0)" xlink:href="#ay"/><use transform="matrix(0.06172839506172839,0,0,0.06172839506172839,15.987654320987653,0)" xlink:href="#az"/><use transform="matrix(0.06172839506172839,0,0,0.06172839506172839,31.975308641975307,0)" xlink:href="#aA"/></g><path fill="#3a414a" d="M205 0l-28-72H64L36 0H1l101-248h38L239 0h-34zm-38-99l-47-123c-12 45-31 82-46 123h93" id="aB"/><path fill="#3a414a" d="M266 0h-40l-56-210L115 0H75L2-248h35L96-30l15-64 43-154h32l59 218 59-218h35" id="aC"/><path fill="#3a414a" d="M185-189c-5-48-123-54-124 2 14 75 158 14 163 119 3 78-121 87-175 55-17-10-28-26-33-46l33-7c5 56 141 63 141-1 0-78-155-14-162-118-5-82 145-84 179-34 5 7 8 16 11 25" id="aD"/><g id="t"><use transform="matrix(0.06172839506172839,0,0,0.06172839506172839,0,0)" xlink:href="#aB"/><use transform="matrix(0.06172839506172839,0,0,0.06172839506172839,14.012345679012345,0)" xlink:href="#aC"/><use transform="matrix(0.06172839506172839,0,0,0.06172839506172839,34.938271604938265,0)" xlink:href="#aD"/></g><path fill="#3a414a" d="M140-251c81 0 123 46 123 126C263-46 219 4 140 4 59 4 17-45 17-125s42-126 123-126zm0 227c63 0 89-41 89-101s-29-99-89-99c-61 0-89 39-89 99S79-25 140-24" id="aE"/><g id="u"><use transform="matrix(0.06172839506172839,0,0,0.06172839506172839,0,0)" xlink:href="#aD"/><use transform="matrix(0.06172839506172839,0,0,0.06172839506172839,14.814814814814813,0)" xlink:href="#aD"/><use transform="matrix(0.06172839506172839,0,0,0.06172839506172839,29.629629629629626,0)" xlink:href="#aE"/></g></defs></g></svg>